<svg width="14" height="18" viewBox="0 0 14 18" fill="none" xmlns="http://www.w3.org/2000/svg">
<path fill-rule="evenodd" clip-rule="evenodd" d="M9.48773 0.666504H4.51162C1.92396 0.666504 0.333008 1.91591 0.333008 4.36179V15.9423C0.336743 16.1773 0.391687 16.3983 0.493529 16.5977L0.57157 16.7264L0.653264 16.8311C1.07921 17.3306 1.75901 17.4685 2.32002 17.1696L6.978 14.5528L11.6549 17.1641C11.8636 17.2741 12.0801 17.3296 12.3003 17.3332C12.6695 17.3332 13.0146 17.1867 13.269 16.9258C13.5234 16.665 13.6663 16.3112 13.6663 15.9423V4.21455C13.6663 1.86236 12.0398 0.666504 9.48773 0.666504ZM4.51156 1.87296H9.48766C11.458 1.87296 12.4896 2.6314 12.4896 4.21455V15.9423C12.4896 15.9912 12.4706 16.0381 12.4369 16.0727C12.4031 16.1074 12.3573 16.1268 12.3096 16.1268C12.2792 16.1262 12.2402 16.1162 12.2048 16.0976L7.53587 13.491C7.18714 13.2978 6.769 13.2978 6.42197 13.4901L1.76596 16.1053C1.69532 16.1427 1.59438 16.1182 1.5406 16.0431L1.50938 15.9913C1.5154 15.9998 1.51431 15.9895 1.51244 15.9716C1.51127 15.9605 1.5098 15.9464 1.50957 15.9322L1.50965 4.36179C1.50965 2.66299 2.51565 1.87296 4.51156 1.87296ZM10.428 6.53359C10.428 6.20043 10.1646 5.93036 9.83964 5.93036H4.11676L4.03693 5.93587C3.74975 5.97581 3.52841 6.2282 3.52841 6.53359C3.52841 6.86674 3.79182 7.13682 4.11676 7.13682H9.83964L9.91948 7.13131C10.2067 7.09137 10.428 6.83898 10.428 6.53359Z" fill="#4489FE"/>
</svg>
